<svg width="376" height="90" fill="#121212" xmlns="http://www.w3.org/2000/svg"><path d="M53.504 17.621H35.892V90h17.612V17.62Z"/><path d="M125.713 17.62V90h-17.612V17.62H53.489V0h54.612l17.612 17.62ZM233.179 0h-72.225v17.62h72.225V0ZM160.947 61.944h-17.612V90h17.612V61.944ZM160.947 17.621v26.702h54.612v17.621h-54.612l-17.612-17.62V17.62h17.612ZM18.612 35.512H1v54.487h17.612V35.512ZM18.262 0v35.512L.649 17.892V0h17.613ZM303.613 17.621h-17.612V90h17.612V17.621ZM375.845 17.62V90h-17.613V17.62H303.62V0h54.612l17.613 17.62ZM268.389 35.512h-17.612v54.487h17.612V35.512ZM268.389 0v35.512l-17.612-17.62V0h17.612Z"/></svg>