<svg xmlns="http://www.w3.org/2000/svg" width="190" height="46" fill="#121212"><path d="M27.216 9.182h-8.894v36.552h8.894V9.182Z" /><path d="M63.682 9.182v36.552h-8.894V9.182h-27.58V.283h27.58l8.894 8.899ZM117.953.283H81.479v8.898h36.474V.283ZM81.475 31.565h-8.894v14.169h8.894V31.565ZM81.475 9.182v13.485h27.58v8.898h-27.58l-8.894-8.898V9.182h8.894ZM9.595 18.217H.701v27.516h8.894V18.217Z" /><path d="M9.418.283v17.934L.524 9.319V.283h8.894ZM153.523 9.182h-8.895v36.552h8.895V9.182ZM190 9.182v36.552h-8.894V9.182h-27.58V.283h27.58L190 9.182ZM135.734 18.217h-8.894v27.516h8.894V18.217Z"/><path d="M135.734.283v17.934l-8.894-8.898V.283h8.894Z" /></svg>