<svg xmlns="http://www.w3.org/2000/svg" width="106" height="36" fill="#121212"><path d="M13.932 7.053h-.046v-.047l.046.047ZM6.94.056l6.947 6.95H0V.056h6.94Z"/><path fill="#121212" d="M63.137 22.186v13.29h-6.93v-13.29H34.709l-6.929-6.938V7.054H13.934l-.048-.049V0h20.822v15.248h21.5l6.929 6.938ZM13.886 7.054h.048l6.898 6.894v21.564h-6.947V7.054ZM13.932 7.053h-.046v-.047l.046.047ZM105.512 28.532v6.944H77.03l-6.942-6.944v-7.297h6.942v7.297h28.482ZM105.508 0H77.025v6.943h28.483V0Z"/><path fill="#121212" d="M105.512 14.291v6.945H77.03l-6.942-6.945V6.945h6.942v7.346h28.482ZM34.707 22.188h-6.929v13.29h6.93v-13.29ZM63.14.056h-6.93V15.25h6.93V.056Z"/></svg>